<svg width="20" height="21" viewBox="0 0 20 21" fill="none" xmlns="http://www.w3.org/2000/svg">
<path d="M16.25 3.54285H14.375V2.91785C14.375 2.75209 14.3092 2.59312 14.1919 2.4759C14.0747 2.35869 13.9158 2.29285 13.75 2.29285C13.5842 2.29285 13.4253 2.35869 13.3081 2.4759C13.1908 2.59312 13.125 2.75209 13.125 2.91785V3.54285H6.875V2.91785C6.875 2.75209 6.80915 2.59312 6.69194 2.4759C6.57473 2.35869 6.41576 2.29285 6.25 2.29285C6.08424 2.29285 5.92527 2.35869 5.80806 2.4759C5.69085 2.59312 5.625 2.75209 5.625 2.91785V3.54285H3.75C3.41848 3.54285 3.10054 3.67454 2.86612 3.90896C2.6317 4.14338 2.5 4.46133 2.5 4.79285V17.2928C2.5 17.6244 2.6317 17.9423 2.86612 18.1767C3.10054 18.4111 3.41848 18.5428 3.75 18.5428H16.25C16.5815 18.5428 16.8995 18.4111 17.1339 18.1767C17.3683 17.9423 17.5 17.6244 17.5 17.2928V4.79285C17.5 4.46133 17.3683 4.14338 17.1339 3.90896C16.8995 3.67454 16.5815 3.54285 16.25 3.54285ZM5.625 4.79285V5.41785C5.625 5.58361 5.69085 5.74258 5.80806 5.85979C5.92527 5.977 6.08424 6.04285 6.25 6.04285C6.41576 6.04285 6.57473 5.977 6.69194 5.85979C6.80915 5.74258 6.875 5.58361 6.875 5.41785V4.79285H13.125V5.41785C13.125 5.58361 13.1908 5.74258 13.3081 5.85979C13.4253 5.977 13.5842 6.04285 13.75 6.04285C13.9158 6.04285 14.0747 5.977 14.1919 5.85979C14.3092 5.74258 14.375 5.58361 14.375 5.41785V4.79285H16.25V7.29285H3.75V4.79285H5.625ZM16.25 17.2928H3.75V8.54285H16.25V17.2928Z" fill="#8B8D9B"/>
</svg>
