<svg width="20" height="21" viewBox="0 0 20 21" fill="none" xmlns="http://www.w3.org/2000/svg">
<path d="M10 2.58319C8.39303 2.58319 6.82214 3.05971 5.486 3.9525C4.14985 4.84529 3.10844 6.11424 2.49348 7.59889C1.87852 9.08354 1.71762 10.7172 2.03112 12.2933C2.34463 13.8694 3.11846 15.3171 4.25476 16.4534C5.39106 17.5897 6.8388 18.3636 8.4149 18.6771C9.99099 18.9906 11.6247 18.8297 13.1093 18.2147C14.594 17.5997 15.8629 16.5583 16.7557 15.2222C17.6485 13.886 18.125 12.3152 18.125 10.7082C18.1227 8.55401 17.266 6.4887 15.7427 4.96546C14.2195 3.44222 12.1542 2.58547 10 2.58319ZM10 17.5832C8.64026 17.5832 7.31105 17.18 6.18046 16.4245C5.04987 15.6691 4.16868 14.5954 3.64833 13.3391C3.12798 12.0829 2.99183 10.7006 3.2571 9.36695C3.52238 8.03333 4.17716 6.80832 5.13864 5.84683C6.10013 4.88535 7.32514 4.23057 8.65876 3.96529C9.99238 3.70002 11.3747 3.83617 12.631 4.35652C13.8872 4.87687 14.9609 5.75806 15.7164 6.88865C16.4718 8.01923 16.875 9.34844 16.875 10.7082C16.8729 12.5309 16.1479 14.2784 14.8591 15.5673C13.5702 16.8561 11.8227 17.5811 10 17.5832ZM15 10.7082C15 10.874 14.9342 11.0329 14.8169 11.1501C14.6997 11.2673 14.5408 11.3332 14.375 11.3332H10C9.83424 11.3332 9.67527 11.2673 9.55806 11.1501C9.44085 11.0329 9.375 10.874 9.375 10.7082V6.33319C9.375 6.16743 9.44085 6.00846 9.55806 5.89125C9.67527 5.77404 9.83424 5.70819 10 5.70819C10.1658 5.70819 10.3247 5.77404 10.4419 5.89125C10.5592 6.00846 10.625 6.16743 10.625 6.33319V10.0832H14.375C14.5408 10.0832 14.6997 10.149 14.8169 10.2662C14.9342 10.3835 15 10.5424 15 10.7082Z" fill="#8B8D9B"/>
</svg>
