<svg width="220" height="48" viewBox="0 0 220 48" fill="none" xmlns="http://www.w3.org/2000/svg">
<rect width="220" height="48" rx="4" fill="url(#paint0_linear_615_600)"/>
<path d="M17.312 30V18.896H18.368L18.816 20.64V30H17.312ZM24.992 30L18.176 20.896L18.368 18.896L25.2 27.984L24.992 30ZM24.992 30L24.544 28.352V18.896H26.048V30H24.992ZM31.8874 30.16C31.1407 30.16 30.4687 29.984 29.8714 29.632C29.274 29.28 28.7994 28.8053 28.4474 28.208C28.0954 27.6 27.9194 26.9227 27.9194 26.176C27.9194 25.44 28.0954 24.7787 28.4474 24.192C28.7994 23.5947 29.274 23.12 29.8714 22.768C30.4687 22.416 31.1407 22.24 31.8874 22.24C32.6234 22.24 33.29 22.416 33.8874 22.768C34.4954 23.1093 34.9754 23.5787 35.3274 24.176C35.6794 24.7733 35.8554 25.44 35.8554 26.176C35.8554 26.9227 35.6794 27.6 35.3274 28.208C34.9754 28.8053 34.4954 29.28 33.8874 29.632C33.29 29.984 32.6234 30.16 31.8874 30.16ZM31.8874 28.768C32.3674 28.768 32.794 28.656 33.1674 28.432C33.5407 28.208 33.834 27.904 34.0474 27.52C34.2607 27.1253 34.3674 26.6773 34.3674 26.176C34.3674 25.6853 34.2554 25.248 34.0314 24.864C33.818 24.48 33.5247 24.1813 33.1514 23.968C32.7887 23.744 32.3674 23.632 31.8874 23.632C31.4074 23.632 30.9807 23.744 30.6074 23.968C30.234 24.1813 29.9407 24.48 29.7274 24.864C29.514 25.248 29.4074 25.6853 29.4074 26.176C29.4074 26.6773 29.514 27.1253 29.7274 27.52C29.9407 27.904 30.234 28.208 30.6074 28.432C30.9807 28.656 31.4074 28.768 31.8874 28.768ZM39.789 30L36.301 22.4H37.901L40.701 28.816H39.773L42.589 22.4H44.125L40.637 30H39.789ZM48.288 30.16C47.5947 30.16 46.9653 29.9893 46.4 29.648C45.8347 29.296 45.3867 28.8213 45.056 28.224C44.736 27.6267 44.576 26.9547 44.576 26.208C44.576 25.4613 44.736 24.7893 45.056 24.192C45.3867 23.5947 45.8293 23.12 46.384 22.768C46.9493 22.416 47.584 22.24 48.288 22.24C48.864 22.24 49.376 22.3627 49.824 22.608C50.2827 22.8427 50.6507 23.1733 50.928 23.6C51.2053 24.016 51.36 24.5013 51.392 25.056V27.344C51.36 27.888 51.2053 28.3733 50.928 28.8C50.6613 29.2267 50.2987 29.5627 49.84 29.808C49.392 30.0427 48.8747 30.16 48.288 30.16ZM48.528 28.8C49.2427 28.8 49.8187 28.56 50.256 28.08C50.6933 27.5893 50.912 26.9653 50.912 26.208C50.912 25.6853 50.8107 25.232 50.608 24.848C50.416 24.4533 50.1387 24.1493 49.776 23.936C49.4133 23.712 48.992 23.6 48.512 23.6C48.032 23.6 47.6053 23.712 47.232 23.936C46.8693 24.16 46.5813 24.4693 46.368 24.864C46.1653 25.248 46.064 25.6907 46.064 26.192C46.064 26.704 46.1653 27.1573 46.368 27.552C46.5813 27.936 46.8747 28.24 47.248 28.464C47.6213 28.688 48.048 28.8 48.528 28.8ZM50.816 30V27.952L51.088 26.096L50.816 24.256V22.4H52.272V30H50.816ZM57.6966 30V22.4H59.1366V30H57.6966ZM59.1366 25.664L58.5926 25.424C58.5926 24.4533 58.8166 23.68 59.2646 23.104C59.7126 22.528 60.358 22.24 61.2006 22.24C61.5846 22.24 61.9313 22.3093 62.2406 22.448C62.55 22.576 62.838 22.7947 63.1046 23.104L62.1606 24.08C62.0006 23.9093 61.8246 23.7867 61.6326 23.712C61.4406 23.6373 61.2166 23.6 60.9606 23.6C60.4273 23.6 59.99 23.7707 59.6486 24.112C59.3073 24.4533 59.1366 24.9707 59.1366 25.664ZM67.3885 30.16C66.6312 30.16 65.9485 29.9893 65.3405 29.648C64.7325 29.296 64.2525 28.8213 63.9005 28.224C63.5485 27.6267 63.3725 26.9493 63.3725 26.192C63.3725 25.4453 63.5432 24.7733 63.8845 24.176C64.2365 23.5787 64.7058 23.1093 65.2925 22.768C65.8898 22.416 66.5565 22.24 67.2925 22.24C67.9965 22.24 68.6152 22.4 69.1485 22.72C69.6925 23.04 70.1138 23.4827 70.4125 24.048C70.7218 24.6133 70.8765 25.2533 70.8765 25.968C70.8765 26.0747 70.8712 26.192 70.8605 26.32C70.8498 26.4373 70.8285 26.576 70.7965 26.736H64.3805V25.536H70.0285L69.5005 26C69.5005 25.488 69.4098 25.056 69.2285 24.704C69.0472 24.3413 68.7912 24.064 68.4605 23.872C68.1298 23.6693 67.7298 23.568 67.2605 23.568C66.7698 23.568 66.3378 23.6747 65.9645 23.888C65.5912 24.1013 65.3032 24.4 65.1005 24.784C64.8978 25.168 64.7965 25.6213 64.7965 26.144C64.7965 26.6773 64.9032 27.1467 65.1165 27.552C65.3298 27.9467 65.6338 28.256 66.0285 28.48C66.4232 28.6933 66.8765 28.8 67.3885 28.8C67.8152 28.8 68.2045 28.7253 68.5565 28.576C68.9192 28.4267 69.2285 28.2027 69.4845 27.904L70.4125 28.848C70.0498 29.2747 69.6018 29.6 69.0685 29.824C68.5458 30.048 67.9858 30.16 67.3885 30.16ZM75.9186 30.16C75.172 30.16 74.4946 29.984 73.8866 29.632C73.2893 29.28 72.8146 28.8053 72.4626 28.208C72.1213 27.6 71.9506 26.928 71.9506 26.192C71.9506 25.4453 72.1213 24.7733 72.4626 24.176C72.8146 23.5787 73.2893 23.1093 73.8866 22.768C74.4946 22.416 75.172 22.24 75.9186 22.24C76.5053 22.24 77.0493 22.352 77.5506 22.576C78.052 22.7893 78.484 23.104 78.8466 23.52L77.8866 24.48C77.652 24.2027 77.364 23.9947 77.0226 23.856C76.692 23.7067 76.324 23.632 75.9186 23.632C75.4386 23.632 75.012 23.744 74.6386 23.968C74.2653 24.1813 73.972 24.48 73.7586 24.864C73.5453 25.248 73.4386 25.6907 73.4386 26.192C73.4386 26.6933 73.5453 27.136 73.7586 27.52C73.972 27.904 74.2653 28.208 74.6386 28.432C75.012 28.656 75.4386 28.768 75.9186 28.768C76.324 28.768 76.692 28.6987 77.0226 28.56C77.364 28.4107 77.6573 28.1973 77.9026 27.92L78.8466 28.88C78.4946 29.2853 78.0626 29.6 77.5506 29.824C77.0493 30.048 76.5053 30.16 75.9186 30.16ZM83.5905 30.16C82.8438 30.16 82.1718 29.984 81.5745 29.632C80.9772 29.28 80.5025 28.8053 80.1505 28.208C79.7985 27.6 79.6225 26.9227 79.6225 26.176C79.6225 25.44 79.7985 24.7787 80.1505 24.192C80.5025 23.5947 80.9772 23.12 81.5745 22.768C82.1718 22.416 82.8438 22.24 83.5905 22.24C84.3265 22.24 84.9932 22.416 85.5905 22.768C86.1985 23.1093 86.6785 23.5787 87.0305 24.176C87.3825 24.7733 87.5585 25.44 87.5585 26.176C87.5585 26.9227 87.3825 27.6 87.0305 28.208C86.6785 28.8053 86.1985 29.28 85.5905 29.632C84.9932 29.984 84.3265 30.16 83.5905 30.16ZM83.5905 28.768C84.0705 28.768 84.4972 28.656 84.8705 28.432C85.2438 28.208 85.5372 27.904 85.7505 27.52C85.9638 27.1253 86.0705 26.6773 86.0705 26.176C86.0705 25.6853 85.9585 25.248 85.7345 24.864C85.5212 24.48 85.2278 24.1813 84.8545 23.968C84.4918 23.744 84.0705 23.632 83.5905 23.632C83.1105 23.632 82.6838 23.744 82.3105 23.968C81.9372 24.1813 81.6438 24.48 81.4305 24.864C81.2172 25.248 81.1105 25.6853 81.1105 26.176C81.1105 26.6773 81.2172 27.1253 81.4305 27.52C81.6438 27.904 81.9372 28.208 82.3105 28.432C82.6838 28.656 83.1105 28.768 83.5905 28.768ZM89.181 30V22.4H90.621V30H89.181ZM94.317 30V25.408C94.317 24.8427 94.141 24.4 93.789 24.08C93.4477 23.7493 93.0157 23.584 92.493 23.584C92.141 23.584 91.8263 23.6587 91.549 23.808C91.2717 23.9573 91.0477 24.1653 90.877 24.432C90.7063 24.6987 90.621 25.0187 90.621 25.392L90.029 25.104C90.029 24.528 90.1517 24.0267 90.397 23.6C90.653 23.1733 90.9997 22.8427 91.437 22.608C91.8743 22.3627 92.365 22.24 92.909 22.24C93.4423 22.24 93.9223 22.3573 94.349 22.592C94.7863 22.8267 95.1277 23.1573 95.373 23.584C95.629 24.0107 95.757 24.5173 95.757 25.104V30H94.317ZM99.453 30V25.408C99.453 24.8427 99.277 24.4 98.925 24.08C98.5837 23.7493 98.157 23.584 97.645 23.584C97.293 23.584 96.973 23.6587 96.685 23.808C96.4077 23.9573 96.1837 24.1653 96.013 24.432C95.8423 24.6987 95.757 25.0187 95.757 25.392L94.941 25.104C94.973 24.5173 95.1277 24.016 95.405 23.6C95.693 23.1733 96.061 22.8427 96.509 22.608C96.957 22.3627 97.4477 22.24 97.981 22.24C98.5357 22.24 99.0317 22.3573 99.469 22.592C99.9063 22.8267 100.253 23.1573 100.509 23.584C100.776 24.0107 100.909 24.5227 100.909 25.12V30H99.453ZM106.389 30.16C105.631 30.16 104.949 29.9893 104.341 29.648C103.733 29.296 103.253 28.8213 102.901 28.224C102.549 27.6267 102.373 26.9493 102.373 26.192C102.373 25.4453 102.543 24.7733 102.885 24.176C103.237 23.5787 103.706 23.1093 104.293 22.768C104.89 22.416 105.557 22.24 106.293 22.24C106.997 22.24 107.615 22.4 108.149 22.72C108.693 23.04 109.114 23.4827 109.413 24.048C109.722 24.6133 109.877 25.2533 109.877 25.968C109.877 26.0747 109.871 26.192 109.861 26.32C109.85 26.4373 109.829 26.576 109.797 26.736H103.381V25.536H109.029L108.501 26C108.501 25.488 108.41 25.056 108.229 24.704C108.047 24.3413 107.791 24.064 107.461 23.872C107.13 23.6693 106.73 23.568 106.261 23.568C105.77 23.568 105.338 23.6747 104.965 23.888C104.591 24.1013 104.303 24.4 104.101 24.784C103.898 25.168 103.797 25.6213 103.797 26.144C103.797 26.6773 103.903 27.1467 104.117 27.552C104.33 27.9467 104.634 28.256 105.029 28.48C105.423 28.6933 105.877 28.8 106.389 28.8C106.815 28.8 107.205 28.7253 107.557 28.576C107.919 28.4267 108.229 28.2027 108.485 27.904L109.413 28.848C109.05 29.2747 108.602 29.6 108.069 29.824C107.546 30.048 106.986 30.16 106.389 30.16ZM116.823 30V25.568C116.823 24.992 116.641 24.5173 116.279 24.144C115.916 23.7707 115.447 23.584 114.871 23.584C114.487 23.584 114.145 23.6693 113.847 23.84C113.548 24.0107 113.313 24.2453 113.143 24.544C112.972 24.8427 112.887 25.184 112.887 25.568L112.295 25.232C112.295 24.656 112.423 24.144 112.679 23.696C112.935 23.248 113.292 22.896 113.751 22.64C114.209 22.3733 114.727 22.24 115.303 22.24C115.879 22.24 116.385 22.384 116.823 22.672C117.271 22.96 117.623 23.3387 117.879 23.808C118.135 24.2667 118.263 24.7573 118.263 25.28V30H116.823ZM111.447 30V22.4H112.887V30H111.447ZM123.428 30.16C122.724 30.16 122.095 29.9893 121.54 29.648C120.986 29.296 120.543 28.8213 120.212 28.224C119.892 27.6267 119.732 26.9547 119.732 26.208C119.732 25.4613 119.892 24.7893 120.212 24.192C120.543 23.5947 120.986 23.12 121.54 22.768C122.095 22.416 122.724 22.24 123.428 22.24C123.994 22.24 124.506 22.3627 124.964 22.608C125.423 22.8427 125.791 23.1733 126.068 23.6C126.356 24.016 126.516 24.5013 126.548 25.056V27.344C126.516 27.888 126.362 28.3733 126.084 28.8C125.807 29.2267 125.439 29.5627 124.98 29.808C124.522 30.0427 124.004 30.16 123.428 30.16ZM123.668 28.8C124.148 28.8 124.564 28.688 124.916 28.464C125.279 28.24 125.562 27.936 125.764 27.552C125.967 27.1573 126.068 26.7093 126.068 26.208C126.068 25.6853 125.962 25.232 125.748 24.848C125.546 24.464 125.263 24.16 124.9 23.936C124.548 23.712 124.132 23.6 123.652 23.6C123.172 23.6 122.751 23.712 122.388 23.936C122.026 24.16 121.738 24.4693 121.524 24.864C121.322 25.248 121.22 25.6907 121.22 26.192C121.22 26.704 121.322 27.1573 121.524 27.552C121.738 27.936 122.026 28.24 122.388 28.464C122.762 28.688 123.188 28.8 123.668 28.8ZM127.428 30H125.972V27.952L126.244 26.096L125.972 24.256V18.576H127.428V30ZM132.757 30.16C132.063 30.16 131.434 29.9893 130.869 29.648C130.303 29.296 129.855 28.8213 129.525 28.224C129.205 27.6267 129.045 26.9547 129.045 26.208C129.045 25.4613 129.205 24.7893 129.525 24.192C129.855 23.5947 130.298 23.12 130.853 22.768C131.418 22.416 132.053 22.24 132.757 22.24C133.333 22.24 133.845 22.3627 134.293 22.608C134.751 22.8427 135.119 23.1733 135.397 23.6C135.674 24.016 135.829 24.5013 135.861 25.056V27.344C135.829 27.888 135.674 28.3733 135.397 28.8C135.13 29.2267 134.767 29.5627 134.309 29.808C133.861 30.0427 133.343 30.16 132.757 30.16ZM132.997 28.8C133.711 28.8 134.287 28.56 134.725 28.08C135.162 27.5893 135.381 26.9653 135.381 26.208C135.381 25.6853 135.279 25.232 135.077 24.848C134.885 24.4533 134.607 24.1493 134.245 23.936C133.882 23.712 133.461 23.6 132.981 23.6C132.501 23.6 132.074 23.712 131.701 23.936C131.338 24.16 131.05 24.4693 130.837 24.864C130.634 25.248 130.533 25.6907 130.533 26.192C130.533 26.704 130.634 27.1573 130.837 27.552C131.05 27.936 131.343 28.24 131.717 28.464C132.09 28.688 132.517 28.8 132.997 28.8ZM135.285 30V27.952L135.557 26.096L135.285 24.256V22.4H136.741V30H135.285ZM142.309 30.16C141.563 30.16 140.885 29.984 140.277 29.632C139.68 29.28 139.205 28.8053 138.853 28.208C138.512 27.6 138.341 26.928 138.341 26.192C138.341 25.4453 138.512 24.7733 138.853 24.176C139.205 23.5787 139.68 23.1093 140.277 22.768C140.885 22.416 141.563 22.24 142.309 22.24C142.896 22.24 143.44 22.352 143.941 22.576C144.443 22.7893 144.875 23.104 145.237 23.52L144.277 24.48C144.043 24.2027 143.755 23.9947 143.413 23.856C143.083 23.7067 142.715 23.632 142.309 23.632C141.829 23.632 141.403 23.744 141.029 23.968C140.656 24.1813 140.363 24.48 140.149 24.864C139.936 25.248 139.829 25.6907 139.829 26.192C139.829 26.6933 139.936 27.136 140.149 27.52C140.363 27.904 140.656 28.208 141.029 28.432C141.403 28.656 141.829 28.768 142.309 28.768C142.715 28.768 143.083 28.6987 143.413 28.56C143.755 28.4107 144.048 28.1973 144.293 27.92L145.237 28.88C144.885 29.2853 144.453 29.6 143.941 29.824C143.44 30.048 142.896 30.16 142.309 30.16ZM141.797 33.344C141.424 33.344 141.088 33.2907 140.789 33.184C140.491 33.088 140.203 32.9493 139.925 32.768L140.581 31.984C140.709 32.112 140.864 32.2133 141.045 32.288C141.237 32.3627 141.456 32.4 141.701 32.4C142.021 32.4 142.256 32.352 142.405 32.256C142.555 32.16 142.629 32.0373 142.629 31.888C142.629 31.7387 142.555 31.6107 142.405 31.504C142.256 31.3973 142.032 31.344 141.733 31.344H141.029L141.525 29.792H142.613L142.245 30.944L141.717 30.512C142.368 30.4907 142.885 30.6133 143.269 30.88C143.664 31.1573 143.861 31.504 143.861 31.92C143.861 32.336 143.675 32.6773 143.301 32.944C142.928 33.2107 142.427 33.344 141.797 33.344ZM149.741 30.16C149.048 30.16 148.418 29.9893 147.853 29.648C147.288 29.296 146.84 28.8213 146.509 28.224C146.189 27.6267 146.029 26.9547 146.029 26.208C146.029 25.4613 146.189 24.7893 146.509 24.192C146.84 23.5947 147.282 23.12 147.837 22.768C148.402 22.416 149.037 22.24 149.741 22.24C150.317 22.24 150.829 22.3627 151.277 22.608C151.736 22.8427 152.104 23.1733 152.381 23.6C152.658 24.016 152.813 24.5013 152.845 25.056V27.344C152.813 27.888 152.658 28.3733 152.381 28.8C152.114 29.2267 151.752 29.5627 151.293 29.808C150.845 30.0427 150.328 30.16 149.741 30.16ZM149.981 28.8C150.696 28.8 151.272 28.56 151.709 28.08C152.146 27.5893 152.365 26.9653 152.365 26.208C152.365 25.6853 152.264 25.232 152.061 24.848C151.869 24.4533 151.592 24.1493 151.229 23.936C150.866 23.712 150.445 23.6 149.965 23.6C149.485 23.6 149.058 23.712 148.685 23.936C148.322 24.16 148.034 24.4693 147.821 24.864C147.618 25.248 147.517 25.6907 147.517 26.192C147.517 26.704 147.618 27.1573 147.821 27.552C148.034 27.936 148.328 28.24 148.701 28.464C149.074 28.688 149.501 28.8 149.981 28.8ZM152.269 30V27.952L152.541 26.096L152.269 24.256V22.4H153.725V30H152.269ZM151.101 21.232C150.76 21.232 150.466 21.168 150.221 21.04C149.986 20.912 149.762 20.7893 149.549 20.672C149.336 20.5547 149.096 20.496 148.829 20.496C148.562 20.496 148.349 20.544 148.189 20.64C148.029 20.736 147.874 20.88 147.725 21.072L146.941 20.304C147.208 19.984 147.485 19.728 147.773 19.536C148.061 19.344 148.408 19.248 148.813 19.248C149.165 19.248 149.464 19.3067 149.709 19.424C149.954 19.5413 150.184 19.664 150.397 19.792C150.61 19.92 150.84 19.984 151.085 19.984C151.352 19.984 151.565 19.936 151.725 19.84C151.885 19.7333 152.034 19.584 152.173 19.392L152.957 20.16C152.68 20.48 152.397 20.7413 152.109 20.944C151.832 21.136 151.496 21.232 151.101 21.232ZM159.294 30.16C158.547 30.16 157.875 29.984 157.278 29.632C156.68 29.28 156.206 28.8053 155.854 28.208C155.502 27.6 155.326 26.9227 155.326 26.176C155.326 25.44 155.502 24.7787 155.854 24.192C156.206 23.5947 156.68 23.12 157.278 22.768C157.875 22.416 158.547 22.24 159.294 22.24C160.03 22.24 160.696 22.416 161.294 22.768C161.902 23.1093 162.382 23.5787 162.734 24.176C163.086 24.7733 163.262 25.44 163.262 26.176C163.262 26.9227 163.086 27.6 162.734 28.208C162.382 28.8053 161.902 29.28 161.294 29.632C160.696 29.984 160.03 30.16 159.294 30.16ZM159.294 28.768C159.774 28.768 160.2 28.656 160.574 28.432C160.947 28.208 161.24 27.904 161.454 27.52C161.667 27.1253 161.774 26.6773 161.774 26.176C161.774 25.6853 161.662 25.248 161.438 24.864C161.224 24.48 160.931 24.1813 160.558 23.968C160.195 23.744 159.774 23.632 159.294 23.632C158.814 23.632 158.387 23.744 158.014 23.968C157.64 24.1813 157.347 24.48 157.134 24.864C156.92 25.248 156.814 25.6853 156.814 26.176C156.814 26.6773 156.92 27.1253 157.134 27.52C157.347 27.904 157.64 28.208 158.014 28.432C158.387 28.656 158.814 28.768 159.294 28.768Z" fill="white"/>
<circle opacity="0.2" cx="188" cy="24" r="16" fill="white"/>
<path d="M183.568 24.96H185.885V30.36C185.885 31.62 186.568 31.875 187.4 30.93L193.078 24.48C193.775 23.6925 193.483 23.04 192.425 23.04H190.108V17.64C190.108 16.38 189.425 16.125 188.593 17.07L182.915 23.52C182.225 24.315 182.518 24.96 183.568 24.96Z" stroke="white" stroke-width="1.5" stroke-miterlimit="10" stroke-linecap="round" stroke-linejoin="round"/>
<defs>
<linearGradient id="paint0_linear_615_600" x1="2.07564e-06" y1="24.4646" x2="224.981" y2="44.9626" gradientUnits="userSpaceOnUse">
<stop stop-color="#8323FF"/>
<stop offset="1" stop-color="#FF2DAF"/>
</linearGradient>
</defs>
</svg>
